<svg width="616" height="158" viewBox="0 0 616 158" fill="none" xmlns="http://www.w3.org/2000/svg">
<path d="M150.858 47.9749C146.893 38.6097 141.224 30.2022 134.023 22.982C132.108 21.0668 130.097 19.2666 128.067 17.6004C114.125 6.26259 96.5244 0 78.5026 0C78.2154 0 77.9281 0 77.6408 0.0191517C62.7408 0.153213 48.2813 4.51979 35.8136 12.6209C31.2172 15.6086 26.8889 19.0942 23.0011 23.0011C19.0751 26.9272 15.5511 31.2747 12.5443 35.9285C5.11349 47.4195 0.80437 60.7299 0.0957583 74.4233C0.0383033 75.764 0 77.1237 0 78.5026C0 96.2371 5.76465 112.956 16.6619 126.88C24.6673 137.107 35.1624 145.246 47.0173 150.436C56.9762 154.803 67.5671 157.005 78.5026 157.005C81.5286 157.005 84.5929 156.833 87.6188 156.488C105.066 154.477 121.536 146.491 134.004 134.023C146.3 121.728 154.247 105.506 156.392 88.3274C156.795 85.11 157.005 81.8159 157.005 78.5218C157.024 67.9309 154.956 57.6656 150.858 47.9749ZM17.3131 75.3043C17.8685 64.6177 21.22 54.2375 27.023 45.2745C29.3786 41.6357 32.1173 38.2459 35.2007 35.1816C38.2459 32.1365 41.6166 29.4169 45.2171 27.0804C54.9653 20.7412 66.2839 17.3514 77.9473 17.2365H78.5409C87.14 17.2365 95.4136 18.9793 103.055 22.3308L44.3744 43.9339L21.8712 101.868C18.8452 94.5326 17.2365 86.6804 17.2365 78.5026C17.2365 77.4302 17.2556 76.3768 17.3131 75.3043ZM33.343 119.889L57.6273 57.4167L120.77 34.1666C121.134 34.5113 121.498 34.8369 121.843 35.1816C125.463 38.8013 128.565 42.804 131.151 47.1322L73.1593 72.8529L46.4619 130.71C41.6166 127.742 37.2117 124.084 33.343 119.889ZM62.262 137.586L86.0867 85.9909L137.815 63.0473C139.118 68.065 139.788 73.2359 139.788 78.5218C139.788 79.6326 139.75 80.7242 139.692 81.835L101.906 101.772L81.2988 139.711C74.8064 140.018 68.4097 139.271 62.262 137.586ZM121.843 121.843C116.634 127.052 110.505 131.246 103.879 134.272L114.565 114.565L134.042 104.281C131.036 110.773 126.937 116.749 121.843 121.843Z" fill="url(#paint0_linear_1_108)"/>
<g clip-path="url(#clip0_1_108)">
<path d="M288.289 68.0538C288.289 92.1489 271.141 111.453 249.026 111.453H232.198V146.328H206.557V30.0088H249.026C271.141 30.0088 288.289 46.9705 288.289 68.0538ZM262.648 68.0538C261.455 60.0573 256.878 53.7869 249.026 53.7869H232.198V87.6751H249.026C256.878 87.6751 264.001 77.1247 262.648 68.0538Z" fill="white"/>
<path d="M377.714 32.1929V111.453H353.675V104.003C348.386 110.026 340.534 113.672 329.796 113.672C308.802 113.672 291.494 95.4426 291.494 71.823C291.494 48.2035 308.802 29.9736 329.796 29.9736C340.534 29.9736 348.386 33.6196 353.675 39.6434V32.1929H377.714ZM353.675 71.823C353.675 59.934 345.662 52.4835 334.604 52.4835C323.546 52.4835 315.533 59.934 315.533 71.823C315.533 83.7121 323.546 91.1625 334.604 91.1625C345.662 91.1625 353.675 83.7121 353.675 71.823Z" fill="white"/>
<path d="M425.792 52.8358V83.078C425.792 89.8944 431.722 90.5285 442.299 89.8944V111.453C410.888 114.624 401.753 105.271 401.753 83.078V52.8358H388.933V30.0088H401.753V17.1334L425.792 10V30.0088H442.299V52.8358H425.792Z" fill="white"/>
<path d="M450.312 71.823C450.312 48.2035 468.421 29.9736 492.78 29.9736C508.326 29.9736 522.108 38.0582 528.999 50.2642L508.005 62.3118C505.281 56.7636 499.511 53.4346 492.46 53.4346C482.043 53.4346 474.35 60.8851 474.35 71.823C474.35 82.761 482.043 90.2114 492.46 90.2114C499.511 90.2114 505.441 86.8825 508.005 81.3343L528.999 93.2233C522.108 105.588 508.486 113.672 492.78 113.672C468.421 113.672 450.312 95.4426 450.312 71.823Z" fill="white"/>
<path d="M615.54 62.7873V111.453H591.501V66.2748C591.501 56.4465 585.251 51.8494 577.558 51.8494C568.744 51.8494 562.654 56.9221 562.654 68.1771V111.453H538.615V17.063L562.654 10.0528V39.661C566.981 33.7957 574.994 29.9912 585.571 29.9912C601.758 29.9736 615.54 41.3871 615.54 62.7873Z" fill="white"/>
</g>
<defs>
<linearGradient id="paint0_linear_1_108" x1="19.6281" y1="17.8437" x2="137.396" y2="135.612" gradientUnits="userSpaceOnUse">
<stop offset="0.0618703" stop-color="#BB86FC"/>
<stop offset="0.839802" stop-color="#853DDE"/>
</linearGradient>
<clipPath id="clip0_1_108">
<rect width="408.983" height="136.328" fill="white" transform="translate(206.557 10)"/>
</clipPath>
</defs>
</svg>
